<svg xmlns="http://www.w3.org/2000/svg" width="260.000000pt" height="260.000000pt" viewBox="0 0 260.000000 260.000000" preserveAspectRatio="xMidYMid meet"><metadata>
Created by potrace 1.16, written by Peter Selinger 2001-2019
</metadata><g transform="translate(0.000000,260.000000) scale(0.100000,-0.100000)" fill="#000000" stroke="none"><path d="M1220 2570 l-35 -6 30 -6 c16 -3 63 -4 105 -1 41 3 72 3 69 0 -3 -4 -66 -9 -140 -11 -97 -3 -125 -2 -100 5 50 15 33 19 -45 12 -56 -6 -63 -8 -39 -14 l30 -7 -32 -1 c-18 0 -33 -5 -33 -9 0 -4 111 -8 248 -8 136 0 234 2 217 5 -29 5 -29 5 10 12 29 6 22 7 -30 4 l-70 -4 50 14 50 14 -42 -4 c-24 -3 -43 -1 -43 3 0 8 -148 10 -200 2z"></path><path d="M2040 2320 c-28 -31 -24 -43 13 -37 30 5 34 3 30 -14 -7 -26 5 -69 19 -69 9 0 9 3 0 12 -7 7 -12 26 -12 43 0 16 4 25 8 20 4 -6 20 -17 35 -25 16 -8 24 -16 18 -18 -7 -2 -18 2 -27 8 -8 7 -18 10 -22 6 -4 -4 1 -13 10 -20 10 -7 14 -17 10 -21 -4 -5 2 -5 13 -1 38 14 56 15 52 3 -3 -7 -10 -11 -16 -9 -15 3 -14 -15 2 -21 9 -4 9 -8 0 -14 -8 -6 -8 -13 3 -28 11 -15 17 -16 26 -7 14 14 32 16 24 3 -3 -5 1 -12 9 -15 11 -4 14 -15 11 -38 -3 -18 -3 -27 0 -20 8 19 27 14 20 -5 -6 -14 -3 -14 15 3 21 17 22 17 16 1 -4 -12 -3 -16 4 -11 14 8 52 -33 43 -47 -4 -8 -9 -7 -15 2 -5 8 -9 10 -9 4 1 -21 26 -41 52 -41 15 0 24 4 22 8 -3 5 -10 5 -16 2 -8 -5 -9 -1 -4 11 6 16 4 16 -11 4 -15 -12 -16 -12 -10 3 3 9 0 30 -8 45 -17 33 -75 102 -75 89 0 -5 -7 -3 -15 4 -11 9 -12 16 -5 20 6 4 0 15 -15 28 -19 17 -25 18 -25 7 0 -8 5 -15 10 -15 6 0 10 -5 10 -12 0 -8 -6 -6 -17 5 -10 9 -18 27 -18 40 0 12 -6 21 -12 20 -7 -2 -13 1 -13 7 0 5 -18 23 -40 39 -21 15 -38 30 -36 32 2 2 -6 11 -17 20 -20 14 -23 14 -37 -1z"></path><path d="M1055 2183 c-2 -7 0 -13 6 -13 6 0 7 -5 4 -10 -4 -6 -11 -8 -16 -5 -5 3 -6 0 -3 -8 7 -19 -13 -32 -51 -32 -28 0 -30 -2 -30 -40 l0 -40 -45 1 c-25 1 -39 -1 -32 -3 6 -3 12 -9 12 -14 0 -6 -6 -7 -12 -3 -10 6 -10 5 -1 -7 10 -12 10 -18 0 -29 -10 -12 -9 -12 5 -1 10 7 15 18 11 24 -4 6 0 8 10 4 10 -4 20 0 26 11 6 9 11 13 11 8 0 -5 7 -3 15 4 8 7 12 16 9 21 -3 5 2 9 10 9 8 0 22 10 31 23 8 12 17 20 18 17 2 -3 23 12 47 34 25 21 35 33 23 27 -16 -8 -22 -8 -26 3 -6 16 1 26 17 26 6 0 4 -5 -4 -10 -11 -7 -7 -9 15 -5 17 3 86 2 155 -3 89 -7 127 -6 132 2 5 7 8 6 8 -4 0 -12 2 -13 9 -1 7 11 9 11 14 0 4 -10 6 -10 6 -1 1 9 25 12 89 10 67 -1 77 -2 42 -7 -25 -3 24 -6 107 -6 84 0 148 2 143 3 -6 2 -10 11 -11 20 0 14 -2 13 -9 -3 -7 -17 -9 -17 -9 -2 -1 14 -10 17 -53 15 l-53 -1 45 -8 c36 -6 -133 -3 -322 5 -21 1 -38 -2 -38 -6 0 -4 -37 -7 -82 -6 -68 1 -75 2 -38 7 29 4 4 7 -67 6 -81 0 -114 -4 -118 -12z"></path><path d="M1902 2008 c2 -7 -3 -12 -10 -10 -8 1 -11 -2 -6 -9 5 -9 2 -10 -9 -6 -18 7 -104 -67 -99 -85 2 -6 -4 -8 -13 -4 -11 4 -30 -8 -57 -34 -45 -44 -44 -47 9 -25 25 10 32 11 25 2 -7 -8 -6 -19 4 -37 13 -24 13 -22 9 22 -4 51 2 59 46 64 34 4 48 -16 45 -63 -1 -18 1 -30 5 -27 10 6 17 -67 8 -96 -6 -21 -7 -19 -6 13 0 20 -3 40 -6 44 -4 3 -7 -30 -7 -75 0 -79 1 -82 23 -81 21 0 21 1 2 9 -17 7 -17 9 -3 9 16 1 18 10 14 80 -3 43 -1 105 3 136 6 46 4 65 -10 94 -9 20 -14 40 -11 46 4 5 8 2 10 -7 2 -10 8 -18 13 -18 6 0 7 -4 4 -10 -3 -5 -1 -10 4 -10 6 0 11 7 11 15 0 23 1 29 11 47 6 10 5 19 -1 23 -6 4 -9 1 -8 -7z"></path><path d="M2018 1953 c6 -2 12 -12 12 -21 0 -15 -2 -15 -10 -2 -8 13 -10 13 -10 -2 0 -9 6 -19 13 -22 10 -5 10 -7 0 -12 -8 -3 -12 -22 -12 -42 l2 -37 7 35 c4 20 6 -13 4 -74 -3 -107 1 -140 15 -117 4 6 12 -7 18 -30 7 -29 7 -39 -1 -36 -6 2 -13 14 -17 28 -8 27 -10 25 -15 -14 -2 -18 1 -25 8 -21 7 5 9 -2 4 -20 -3 -14 -2 -26 3 -26 5 0 12 10 14 23 3 16 5 14 6 -10 1 -33 -13 -53 -22 -31 -3 7 -6 -3 -6 -23 -1 -20 6 -53 14 -73 13 -30 13 -36 1 -36 -8 0 -16 -15 -20 -39 -3 -21 -13 -44 -21 -51 -8 -7 -12 -17 -8 -23 4 -6 0 -8 -8 -5 -8 2 -22 -3 -31 -13 -16 -17 -15 -18 3 -16 10 1 19 5 19 9 0 4 6 8 14 8 7 0 16 9 19 20 3 11 11 20 17 20 10 0 10 -4 0 -15 -7 -9 -10 -18 -6 -22 9 -9 13 -2 22 31 5 21 4 27 -5 22 -6 -4 -11 -3 -11 3 0 5 5 13 10 16 6 4 8 10 5 15 -3 5 0 12 6 16 9 5 10 0 6 -16 -3 -12 -1 -33 4 -47 7 -20 5 -28 -13 -43 l-23 -19 23 2 c12 1 23 8 24 17 5 43 4 56 -5 68 -5 6 -6 12 -1 12 13 0 12 283 -1 292 -6 5 -6 8 2 8 8 0 12 30 11 105 0 63 -4 105 -10 105 -6 0 -7 11 -4 25 9 36 -20 86 -49 84 -5 0 -4 -3 3 -6z"></path><path d="M643 1853 c0 -33 11 -44 20 -20 3 6 6 8 6 2 1 -24 -26 -41 -64 -41 -38 1 -40 -1 -41 -29 -2 -52 -3 -54 -34 -50 -22 3 -33 -1 -40 -15 -14 -27 -12 -34 5 -20 8 7 12 16 9 21 -3 5 0 9 5 9 17 0 13 -18 -9 -40 -11 -11 -19 -20 -17 -21 1 -1 22 -3 47 -5 36 -2 41 -1 26 8 -16 9 -13 14 33 55 28 25 49 48 46 53 -3 5 -1 11 5 15 5 3 10 2 10 -4 0 -5 18 7 40 26 22 20 37 40 33 46 -4 7 1 8 13 3 10 -4 15 -4 11 0 -4 5 3 13 15 20 23 12 23 12 -4 11 -14 -1 -24 -5 -21 -9 2 -5 0 -8 -5 -8 -5 0 -12 3 -16 8 -14 14 -56 8 -57 -8 0 -10 -3 -9 -9 5 -6 16 -8 14 -7 -12z"></path><path d="M1688 1813 c-14 -4 -15 -9 -6 -36 6 -18 18 -38 26 -44 11 -9 12 -13 3 -13 -7 0 -9 -5 -5 -12 8 -13 12 -138 4 -138 -3 0 -11 -14 -17 -30 -7 -19 -8 -28 -1 -24 6 4 8 -1 3 -15 -4 -12 -2 -21 4 -21 6 0 11 8 12 18 0 14 2 14 9 -3 7 -18 8 -18 15 7 4 15 4 32 0 37 -3 6 -1 11 6 11 8 0 10 -11 6 -35 -3 -21 -2 -33 4 -30 13 9 11 52 -3 74 -8 14 -9 26 -2 43 17 37 16 105 -1 164 -15 52 -21 57 -57 47z"></path><path d="M1028 913 c0 -5 -2 -15 -2 -23 -1 -8 -6 -14 -11 -13 -12 2 -6 -88 6 -103 12 -15 -1 -26 -17 -13 -8 7 -14 6 -20 -2 -4 -7 -3 -9 4 -5 6 3 14 1 18 -5 3 -6 2 -14 -4 -18 -6 -4 -9 -17 -5 -29 7 -28 23 -19 16 11 -4 19 -3 20 7 5 7 -12 8 -24 1 -36 -8 -15 -4 -25 22 -49 43 -42 97 -73 113 -66 8 3 14 0 14 -6 0 -6 3 -10 8 -9 4 1 24 -4 45 -11 20 -7 43 -10 50 -8 6 3 1 6 -13 7 -23 1 -23 2 -5 9 23 9 55 3 55 -10 0 -5 5 -9 11 -9 20 0 3 24 -22 31 -22 7 -23 7 -2 8 12 1 28 -6 37 -14 8 -8 30 -14 48 -14 30 2 31 2 6 6 -42 6 -33 18 14 19 23 0 43 5 46 12 4 14 22 16 22 2 0 -5 -11 -12 -25 -16 -14 -3 -25 -10 -25 -15 0 -14 26 -10 40 5 6 8 18 12 26 9 8 -3 14 0 14 6 0 6 -6 11 -12 11 -10 0 -9 3 1 9 8 5 -20 8 -70 8 -82 0 -83 0 -44 -13 l40 -12 -45 5 c-25 2 -52 7 -60 11 -24 10 -149 8 -142 -2 3 -6 -3 -6 -14 -1 -10 4 -27 7 -37 7 -16 -1 -17 1 -5 15 9 12 10 15 1 9 -16 -9 -17 6 -1 22 9 9 9 12 -1 12 -11 0 -11 3 0 17 13 15 12 15 -9 4 -18 -9 -21 -16 -12 -25 8 -11 5 -13 -15 -13 -14 0 -28 3 -31 8 -3 5 1 6 9 3 8 -3 14 1 14 10 0 8 -6 17 -14 20 -7 3 -13 16 -13 30 0 13 -6 27 -12 30 -10 5 -10 7 0 12 14 7 16 34 2 34 -5 0 -10 11 -10 25 0 14 5 25 10 25 6 0 10 5 10 11 0 5 -4 7 -10 4 -12 -7 -14 8 -2 19 4 4 7 19 7 32 1 23 -3 33 -7 17z"></path><path d="M1760 167 c3 -52 2 -54 -31 -49 -18 3 -29 1 -26 -5 9 -14 -27 -33 -44 -22 -11 7 -9 9 9 9 12 0 22 3 22 8 0 4 -34 7 -75 7 -86 0 -98 -9 -25 -19 54 -7 76 -23 32 -23 -15 0 -38 -3 -52 -7 -19 -5 -18 -4 5 7 l30 14 -40 5 c-44 6 -57 2 -36 -11 11 -7 11 -10 0 -14 -22 -9 12 -29 36 -21 11 3 25 6 32 6 7 1 9 6 6 11 -4 6 3 8 17 4 12 -3 32 -2 44 2 11 5 25 9 30 9 5 0 13 8 19 17 6 11 16 15 33 11 26 -7 51 23 34 40 -7 7 3 10 26 10 32 0 34 -1 15 -10 -11 -5 -21 -13 -21 -18 0 -13 16 -9 30 7 7 8 17 12 23 8 6 -4 7 -1 2 7 -6 10 -4 12 9 7 11 -4 15 -3 11 4 -4 6 -1 10 6 8 28 -3 38 1 33 16 -4 8 -11 15 -16 15 -6 0 -7 -7 -4 -16 6 -14 4 -15 -9 -4 -9 8 -41 15 -71 16 l-55 3 1 -32z"></path></g></svg>